<svg xmlns="http://www.w3.org/2000/svg" width="180" height="40" viewBox="0 0 180 40" fill="none">
  <!-- Box/Shelf Icon -->
  <path d="M30 28V12a3 3 0 0 0-1.5-2.6l-10.5-6a3 3 0 0 0-3 0l-10.5 6A3 3 0 0 0 3 12v16a3 3 0 0 0 1.5 2.6l10.5 6a3 3 0 0 0 3 0l10.5-6A3 3 0 0 0 30 28z" fill="#0ea5e9" opacity="0.2"/>
  <path d="M30 28V12a3 3 0 0 0-1.5-2.6l-10.5-6a3 3 0 0 0-3 0l-10.5 6A3 3 0 0 0 3 12v16a3 3 0 0 0 1.5 2.6l10.5 6a3 3 0 0 0 3 0l10.5-6A3 3 0 0 0 30 28z" stroke="#0ea5e9" stroke-width="2" stroke-linecap="round" stroke-linejoin="round"/>
  <polyline points="3.9 10.44 16.5 18.01 29.1 10.44" stroke="#0ea5e9" stroke-width="2" stroke-linecap="round" stroke-linejoin="round"/>
  <line x1="16.5" y1="33.12" x2="16.5" y2="18" stroke="#0ea5e9" stroke-width="2" stroke-linecap="round" stroke-linejoin="round"/>
  
  <!-- Digital books/products on shelf -->
  <rect x="7" y="14" width="3" height="8" rx="0.5" fill="#0ea5e9" opacity="0.7"/>
  <rect x="12" y="12" width="3" height="10" rx="0.5" fill="#0ea5e9" opacity="0.9"/>
  <rect x="17" y="13" width="3" height="9" rx="0.5" fill="#0ea5e9" opacity="0.8"/>
  <rect x="22" y="15" width="3" height="7" rx="0.5" fill="#0ea5e9" opacity="0.6"/>
  
  <!-- Text: MyDigitalShelf -->
  <path d="M45 15.5L47.5 15.5L47.5 24.5L50 24.5L50 15.5L52.5 15.5L52.5 13L45 13L45 15.5Z" fill="#0ea5e9"/>
  <path d="M54 13L56.5 13L56.5 22L54 22L54 13Z" fill="#0ea5e9"/>
  <path d="M58 13L60.5 13L60.5 22L58 22L58 13Z" fill="#0ea5e9"/>
  <path d="M62 13L64.5 13L64.5 22L62 22L62 13Z" fill="#0ea5e9"/>
  <path d="M66 13L68.5 13L68.5 22L66 22L66 13Z" fill="#0ea5e9"/>
  <path d="M70 13L72.5 13L72.5 22L70 22L70 13Z" fill="#0ea5e9"/>
  <path d="M74 13L76.5 13L76.5 22L74 22L74 13Z" fill="#0ea5e9"/>
  <path d="M78 13L80.5 13L80.5 22L78 22L78 13Z" fill="#0ea5e9"/>
  <path d="M82 13L84.5 13L84.5 22L82 22L82 13Z" fill="#0ea5e9"/>
  <path d="M86 13L88.5 13L88.5 22L86 22L86 13Z" fill="#0ea5e9"/>
  <path d="M90 13L92.5 13L92.5 22L90 22L90 13Z" fill="#0ea5e9"/>
  <path d="M94 13L96.5 13L96.5 22L94 22L94 13Z" fill="#0ea5e9"/>
  <path d="M98 13L100.5 13L100.5 22L98 22L98 13Z" fill="#0ea5e9"/>
  <path d="M102 13L104.5 13L104.5 22L102 22L102 13Z" fill="#0ea5e9"/>
  <path d="M106 13L108.5 13L108.5 22L106 22L106 13Z" fill="#0ea5e9"/>
  <path d="M110 13L112.5 13L112.5 22L110 22L110 13Z" fill="#0ea5e9"/>
  <path d="M114 13L116.5 13L116.5 22L114 22L114 13Z" fill="#0ea5e9"/>
  <path d="M118 13L120.5 13L120.5 22L118 22L118 13Z" fill="#0ea5e9"/>
  <path d="M122 13L124.5 13L124.5 22L122 22L122 13Z" fill="#0ea5e9"/>
  <path d="M126 13L128.5 13L128.5 22L126 22L126 13Z" fill="#0ea5e9"/>
  <path d="M130 13L132.5 13L132.5 22L130 22L130 13Z" fill="#0ea5e9"/>
  <path d="M134 13L136.5 13L136.5 22L134 22L134 13Z" fill="#0ea5e9"/>
  <path d="M138 13L140.5 13L140.5 22L138 22L138 13Z" fill="#0ea5e9"/>
  <path d="M142 13L144.5 13L144.5 22L142 22L142 13Z" fill="#0ea5e9"/>
  <path d="M146 13L148.5 13L148.5 22L146 22L146 13Z" fill="#0ea5e9"/>
  <path d="M150 13L152.5 13L152.5 22L150 22L150 13Z" fill="#0ea5e9"/>
  <path d="M154 13L156.5 13L156.5 22L154 22L154 13Z" fill="#0ea5e9"/>
  <path d="M158 13L160.5 13L160.5 22L158 22L158 13Z" fill="#0ea5e9"/>
  <path d="M162 13L164.5 13L164.5 22L162 22L162 13Z" fill="#0ea5e9"/>
  <path d="M166 13L168.5 13L168.5 22L166 22L166 13Z" fill="#0ea5e9"/>
  <path d="M170 13L172.5 13L172.5 22L170 22L170 13Z" fill="#0ea5e9"/>
  <path d="M174 13L176.5 13L176.5 22L174 22L174 13Z" fill="#0ea5e9"/>
  
  <!-- Actual text (hidden in SVG but for reference) -->
  <text x="45" y="24" font-family="Inter, sans-serif" font-size="14" font-weight="600" fill="#0ea5e9" opacity="0">MyDigitalShelf</text>
</svg>
